<svg id="Layer_1" data-name="Layer 1" xmlns="http://www.w3.org/2000/svg" width="1035.63" height="177.74" viewBox="0 0 1035.63 177.74"><defs><style>.cls-1{fill:#cd5ff8;}</style></defs><path class="cls-1" d="M389,981H351.69l4-20.32h98.1L449.88,981H412.23l-21.62,114.47H367.33Z" transform="translate(-351.69 -957.33)"/><path class="cls-1" d="M449.47,1068.93a57.94,57.94,0,0,0,30.42,8.57c12.95,0,24.84-6.93,24.84-20,0-8.75-5.78-14.78-18.88-21.87-15.62-8.38-27.43-19.06-27.43-35.18,0-25.84,22.4-41.86,49.67-41.86,15,0,24.69,3.66,30,6.79l-7.65,19.31a49.84,49.84,0,0,0-24.32-6.09c-14.9,0-23.3,8.62-23.32,17.65,0,9.23,7.63,14.72,20.25,21.77,16.49,8.7,26.27,19.49,26.27,35.83,0,27-21.91,43.73-52.06,43.73-16.36,0-29.76-4.73-35.79-9.51Z" transform="translate(-351.69 -957.33)"/><path class="cls-1" d="M610.31,957.33c-20.77,24.77-39.89,62.32-39.89,106.69,0,18.79,2.21,35.39,9.47,54.86H562.94c-7.55-16-11.72-34.22-11.72-54.43,0-47,19.79-84.19,41-107.12Z" transform="translate(-351.69 -957.33)"/><path class="cls-1" d="M607.4,1031.44c13.67-.3,16.7-7.74,18-14.19,1.94-10.32,1.61-21.71,3.61-32.33,3.5-18.67,15.65-26.64,33.21-26.64h6.21l-2.73,14.08H662c-9.42.08-14,5.9-16.14,15.68-1.67,8.28-1.18,16.79-2.9,27.15-2.22,14.32-8.9,20.27-19.44,22.63v.4c7.71,1.92,12,7.35,12,14.61,0,6.14-2.17,13.76-4.55,21s-4.68,14.15-4.68,19.12c0,6.43,3.32,10.62,10.73,10.75h3.52l-2.6,14.08h-4.9c-15.11,0-25-6.11-25-20.85,0-7.33,2.61-15.28,5-22.67s4.93-14.38,4.93-19.64c0-4.82-2.88-10.15-13-10.19Z" transform="translate(-351.69 -957.33)"/><path class="cls-1" d="M662.64,1083.06c0-9.38,6.74-17.22,16.37-17.22,8.45,0,14.13,6.11,14.13,14.8,0,9.71-6.88,16.86-16.54,16.86C668.15,1097.5,662.64,1091.32,662.64,1083.06Z" transform="translate(-351.69 -957.33)"/><path class="cls-1" d="M710.24,1083.06c0-9.38,6.73-17.22,16.37-17.22,8.44,0,14.13,6.11,14.13,14.8,0,9.71-6.88,16.86-16.54,16.86C715.75,1097.5,710.24,1091.32,710.24,1083.06Z" transform="translate(-351.69 -957.33)"/><path class="cls-1" d="M757.83,1083.06c0-9.38,6.74-17.22,16.38-17.22,8.44,0,14.13,6.11,14.13,14.8,0,9.71-6.88,16.86-16.54,16.86C763.35,1097.5,757.83,1091.32,757.83,1083.06Z" transform="translate(-351.69 -957.33)"/><path class="cls-1" d="M797.36,1135.07l19.11-100.73c2.17-11.63,4.35-26.34,5.59-36.23h21l-2.19,16h.4c8.33-11.6,20.45-18.24,32.92-18.24,21.07,0,30.74,17.13,30.74,36.13,0,34-23.45,65.63-56.68,65.63-9,0-15.82-2.08-19.37-4.18h-.43l-7.86,41.58Zm34.87-60.26c3.67,3.08,8.84,5,15.52,5,18.1,0,32.8-24,32.8-46,0-8.84-3.86-18.84-15.32-18.84-11.8,0-24.62,13.3-28.81,36Z" transform="translate(-351.69 -957.33)"/><path class="cls-1" d="M914.58,1095.47,926,1035.4c2.58-13.78,3.92-28.62,5-37.29h20.29c-.64,6.66-1.27,13.34-2.2,20.49h.61c6.65-13.11,17.28-22.69,30.49-22.69a43.29,43.29,0,0,1,5.09.28L980.67,1019a35.62,35.62,0,0,0-4.53-.25c-16.53,0-27,16.82-30.91,37.52l-7.37,39.2Z" transform="translate(-351.69 -957.33)"/><path class="cls-1" d="M1081.76,1036.2c0,33.07-23,61.47-56.31,61.47-24.6,0-39.83-16.93-39.83-40.13,0-33,23-61.63,56.27-61.63C1068.1,995.91,1081.76,1014.69,1081.76,1036.2Zm-72,20.73c0,13.37,7.08,22.74,19,22.74,17.37,0,29-24.08,29-43.35,0-10.09-4.52-22.41-18.62-22.41C1020.51,1013.91,1009.69,1038.62,1009.71,1056.93Z" transform="translate(-351.69 -957.33)"/><path class="cls-1" d="M1083.56,1135.07l19.11-100.73c2.17-11.63,4.35-26.34,5.58-36.23h21l-2.19,16h.4c8.33-11.6,20.44-18.24,32.91-18.24,21.08,0,30.75,17.13,30.75,36.13,0,34-23.45,65.63-56.68,65.63-9,0-15.82-2.08-19.37-4.18h-.43l-7.86,41.58Zm34.87-60.26c3.67,3.08,8.83,5,15.52,5,18.1,0,32.8-24,32.8-46,0-8.84-3.87-18.84-15.32-18.84-11.8,0-24.62,13.3-28.81,36Z" transform="translate(-351.69 -957.33)"/><path class="cls-1" d="M1203.19,1073.76c5.12,2.76,14.61,6.46,23.39,6.43,9.5,0,15.07-5.44,15.07-12,0-6-3.27-10-12.75-14.93-11.24-5.83-19.26-14.25-19.26-25.39,0-18.75,16.4-32,39.43-32,10.22,0,18.62,2.35,22.88,4.93l-5.86,16.84a41,41,0,0,0-18.26-4.33c-8.74,0-14.75,4.65-14.75,11.26,0,5.44,4.28,9.2,12.52,13.51,10.71,5.73,20.17,13.77,20.17,26.13,0,21.47-17.9,33.32-41.33,33.32-11.48,0-22.1-3.34-27.24-7.19Z" transform="translate(-351.69 -957.33)"/><path class="cls-1" d="M1330.16,1044.78c-13.67.3-16.7,7.73-18,14.19-1.94,10.25-1.61,21.65-3.61,32.26-3.5,18.61-15.65,26.58-33.21,26.58h-6.21l2.73-14.08h3.62c9.42-.08,14-5.9,16.14-15.62,1.67-8.28,1.18-16.79,2.9-27.15,2.22-14.12,8.9-20.21,19.44-22.56v-.4c-7.72-2-12-7.49-12-14.68,0-6,2.47-13.57,4.7-20.88s4.53-14.37,4.53-19.27c0-6.5-3.32-10.69-10.73-10.81H1297l2.6-14.08h4.9c15.11,0,25,6.11,25,20.85,0,7.52-2.38,15.41-4.93,22.86s-5,14.21-5,19.57c0,4.82,2.88,10.15,13,10.19Z" transform="translate(-351.69 -957.33)"/><path class="cls-1" d="M1328.23,1118.88c20.63-25,39.89-62.51,39.89-107,0-18.79-2.15-35.3-9.47-54.59h17.1c7.49,15.83,11.58,34,11.58,54.16a160,160,0,0,1-40.82,107.39Z" transform="translate(-351.69 -957.33)"/></svg>