<?xml version="1.0" encoding="utf-8"?>
<!-- Generator: Adobe Illustrator 25.4.1, SVG Export Plug-In . SVG Version: 6.00 Build 0)  -->
<svg version="1.1" id="Layer_1" xmlns="http://www.w3.org/2000/svg" xmlns:xlink="http://www.w3.org/1999/xlink" x="0px" y="0px"
	 viewBox="0 0 2000 2000" style="enable-background:new 0 0 2000 2000;" xml:space="preserve">
<style type="text/css">
	.st0{fill:#CD5FF8;}
</style>
<g>
	<path class="st0" d="M521.42,944.22h-37.25l4-20.32h98.1l-3.91,20.32H544.7l-21.62,114.48H499.8L521.42,944.22z"/>
	<path class="st0" d="M581.94,1032.16c7.66,4.85,18.47,8.56,30.42,8.56c12.95,0.06,24.84-6.93,24.84-20.01
		c0-8.75-5.78-14.78-18.89-21.86c-15.61-8.39-27.43-19.06-27.43-35.18c0-25.84,22.41-41.86,49.67-41.86
		c14.96,0,24.69,3.66,29.99,6.79l-7.66,19.31c-4.32-2.45-13.39-6.26-24.31-6.09c-14.9,0-23.3,8.62-23.32,17.65
		c0,9.24,7.63,14.72,20.25,21.77c16.49,8.7,26.27,19.49,26.27,35.84c0,26.97-21.9,43.73-52.06,43.73c-16.37,0-29.77-4.73-35.79-9.51
		L581.94,1032.16z"/>
	<path class="st0" d="M742.79,920.56c-20.77,24.77-39.89,62.32-39.89,106.69c0,18.79,2.21,35.39,9.47,54.86h-16.96
		c-7.55-16.01-11.72-34.21-11.72-54.43c0-47.03,19.79-84.19,40.97-107.11H742.79z"/>
	<path class="st0" d="M739.88,994.66c13.66-0.3,16.7-7.74,17.95-14.19c1.94-10.32,1.61-21.71,3.61-32.32
		c3.5-18.68,15.65-26.65,33.21-26.65h6.22l-2.74,14.08h-3.62c-9.42,0.09-14.05,5.9-16.14,15.69c-1.67,8.28-1.18,16.79-2.9,27.15
		c-2.22,14.32-8.9,20.27-19.44,22.63v0.4c7.71,1.92,12.02,7.35,12.02,14.61c0,6.14-2.17,13.76-4.55,21.03
		c-2.38,7.18-4.68,14.15-4.68,19.12c0,6.43,3.32,10.62,10.73,10.75h3.52l-2.6,14.08h-4.9c-15.11,0-25-6.11-25-20.85
		c0-7.33,2.62-15.28,5.02-22.67c2.4-7.42,4.93-14.38,4.93-19.63c0-4.82-2.87-10.15-13.04-10.19L739.88,994.66z"/>
	<path class="st0" d="M795.11,1046.29c0-9.38,6.74-17.22,16.37-17.22c8.44,0,14.13,6.11,14.13,14.8c0,9.71-6.89,16.87-16.54,16.87
		C800.62,1060.73,795.11,1054.55,795.11,1046.29z"/>
	<path class="st0" d="M842.71,1046.29c0-9.38,6.74-17.22,16.37-17.22c8.44,0,14.13,6.11,14.13,14.8c0,9.71-6.89,16.87-16.54,16.87
		C848.22,1060.73,842.71,1054.55,842.71,1046.29z"/>
	<path class="st0" d="M890.31,1046.29c0-9.38,6.74-17.22,16.37-17.22c8.44,0,14.13,6.11,14.13,14.8c0,9.71-6.89,16.87-16.54,16.87
		C895.82,1060.73,890.31,1054.55,890.31,1046.29z"/>
	<path class="st0" d="M929.84,1098.3l19.11-100.74c2.17-11.62,4.35-26.34,5.58-36.23h21.01l-2.19,16.04h0.4
		c8.33-11.6,20.44-18.24,32.92-18.24c21.08,0,30.74,17.13,30.74,36.13c0,34.02-23.44,65.63-56.68,65.63
		c-8.96,0-15.82-2.08-19.37-4.19h-0.43l-7.86,41.59H929.84z M964.71,1038.03c3.67,3.08,8.84,4.95,15.52,4.95
		c18.1,0,32.81-23.99,32.81-45.95c0-8.84-3.87-18.84-15.32-18.84c-11.8,0-24.63,13.3-28.81,36.04L964.71,1038.03z"/>
	<path class="st0" d="M1047.05,1058.7l11.39-60.08c2.58-13.78,3.92-28.62,4.96-37.29h20.29c-0.64,6.66-1.27,13.34-2.2,20.49h0.61
		c6.65-13.12,17.28-22.69,30.49-22.69c1.69,0,3.58,0.09,5.09,0.28l-4.54,22.81c-1.21-0.16-2.76-0.25-4.53-0.25
		c-16.54,0-27.05,16.83-30.92,37.52l-7.36,39.21H1047.05z"/>
	<path class="st0" d="M1214.24,999.43c0,33.07-23.05,61.47-56.31,61.47c-24.6,0-39.83-16.94-39.83-40.13
		c0-32.99,23.01-61.63,56.28-61.63C1200.57,959.14,1214.24,977.92,1214.24,999.43z M1142.19,1020.16c0,13.37,7.07,22.75,18.98,22.75
		c17.38,0,28.97-24.09,28.97-43.36c0-10.09-4.52-22.41-18.61-22.41C1152.99,977.14,1142.16,1001.85,1142.19,1020.16z"/>
	<path class="st0" d="M1216.03,1098.3l19.11-100.74c2.17-11.62,4.35-26.34,5.58-36.23h21.01l-2.19,16.04h0.4
		c8.33-11.6,20.44-18.24,32.92-18.24c21.08,0,30.74,17.13,30.74,36.13c0,34.02-23.44,65.63-56.68,65.63
		c-8.96,0-15.82-2.08-19.37-4.19h-0.43l-7.86,41.59H1216.03z M1250.9,1038.03c3.67,3.08,8.84,4.95,15.52,4.95
		c18.1,0,32.81-23.99,32.81-45.95c0-8.84-3.87-18.84-15.32-18.84c-11.8,0-24.63,13.3-28.81,36.04L1250.9,1038.03z"/>
	<path class="st0" d="M1335.67,1036.99c5.12,2.76,14.61,6.46,23.39,6.43c9.49-0.03,15.06-5.44,15.06-12
		c0-6.03-3.26-9.98-12.75-14.92c-11.24-5.83-19.26-14.25-19.26-25.39c0-18.75,16.4-31.97,39.43-31.97c10.22,0,18.62,2.35,22.88,4.93
		l-5.86,16.83c-3.76-1.92-10.29-4.33-18.26-4.33c-8.75,0-14.76,4.65-14.76,11.26c0,5.44,4.28,9.2,12.53,13.51
		c10.71,5.73,20.17,13.78,20.17,26.14c0,21.47-17.9,33.32-41.33,33.32c-11.48,0-22.1-3.34-27.24-7.19L1335.67,1036.99z"/>
	<path class="st0" d="M1462.63,1008c-13.67,0.3-16.7,7.74-17.95,14.19c-1.94,10.25-1.61,21.65-3.61,32.26
		c-3.5,18.61-15.65,26.58-33.21,26.58h-6.21l2.74-14.08h3.62c9.42-0.08,14.05-5.9,16.14-15.62c1.67-8.28,1.18-16.79,2.9-27.15
		c2.22-14.13,8.9-20.21,19.44-22.56v-0.4c-7.71-1.99-12.02-7.48-12.02-14.68c0.03-6.01,2.47-13.57,4.7-20.88
		c2.23-7.31,4.53-14.37,4.53-19.27c0-6.5-3.32-10.69-10.72-10.82h-3.52l2.6-14.08h4.9c15.11,0,25,6.11,25,20.85
		c0,7.52-2.38,15.41-4.93,22.86c-2.55,7.37-5.02,14.2-5.02,19.57c0,4.82,2.87,10.15,13.04,10.19L1462.63,1008z"/>
	<path class="st0" d="M1460.7,1082.1c20.63-24.96,39.89-62.51,39.89-106.96c0-18.79-2.15-35.3-9.47-54.59h17.1
		c7.49,15.82,11.58,34.03,11.58,54.16c0,47.11-19.79,84.28-40.81,107.39H1460.7z"/>
</g>
</svg>
